<?xml version="1.0" encoding="UTF-8" standalone="no"?>
<!-- Created with Inkscape (http://www.inkscape.org/) -->

<svg
   xmlns:dc="http://purl.org/dc/elements/1.1/"
   xmlns:cc="http://creativecommons.org/ns#"
   xmlns:rdf="http://www.w3.org/1999/02/22-rdf-syntax-ns#"
   xmlns:svg="http://www.w3.org/2000/svg"
   xmlns="http://www.w3.org/2000/svg"
   xmlns:sodipodi="http://sodipodi.sourceforge.net/DTD/sodipodi-0.dtd"
   xmlns:inkscape="http://www.inkscape.org/namespaces/inkscape"
   width="30"
   height="30"
   viewBox="0 0 7.9374998 7.9375002"
   version="1.1"
   id="svg8"
   inkscape:version="0.92.3 (2405546, 2018-03-11)"
   sodipodi:docname="smudge_tool.svg"
   inkscape:export-xdpi="96"
   inkscape:export-ydpi="96">
  <defs
     id="defs2" />
  <sodipodi:namedview
     id="base"
     pagecolor="#ffffff"
     bordercolor="#666666"
     borderopacity="1.0"
     inkscape:pageopacity="0.0"
     inkscape:pageshadow="2"
     inkscape:zoom="22.4"
     inkscape:cx="-1.7582376"
     inkscape:cy="14.307393"
     inkscape:document-units="mm"
     inkscape:current-layer="layer1"
     showgrid="true"
     units="px"
     inkscape:window-width="1680"
     inkscape:window-height="987"
     inkscape:window-x="-8"
     inkscape:window-y="-8"
     inkscape:window-maximized="1"
     inkscape:snap-grids="false">
    <inkscape:grid
       type="xygrid"
       id="grid815" />
  </sodipodi:namedview>
  <metadata
     id="metadata5">
    <rdf:RDF>
      <cc:Work
         rdf:about="">
        <dc:format>image/svg+xml</dc:format>
        <dc:type
           rdf:resource="http://purl.org/dc/dcmitype/StillImage" />
        <dc:title />
      </cc:Work>
    </rdf:RDF>
  </metadata>
  <g
     inkscape:label="Layer 1"
     inkscape:groupmode="layer"
     id="layer1"
     transform="translate(0,-289.06249)">
    <path
       style="fill:none;stroke:#000000;stroke-width:0.33072916;stroke-linecap:round;stroke-linejoin:round;stroke-miterlimit:4;stroke-dasharray:none;stroke-opacity:1"
       d="m 6.4636505,289.70083 c 0.6919111,1.68689 0.6547182,4.25428 0.3328338,4.43599 -0.3751488,0.21177 -1.0535719,0.55437 -1.2896315,0.65559 -0.2557417,0.10965 -0.2454892,0.17392 -1.4796376,0.18846 -0.6450532,0.008 -0.096849,-0.60334 0.065978,-0.81189 0.2237849,-0.28662 0.6929277,0.0316 0.9575136,-0.23296 0.2645808,-0.26458 0.2693055,-1.54498 0.00472,-1.2804 -0.2645858,0.26459 -1.944877,3.16143 -2.6741815,3.73585 -0.5465384,0.43047 -0.8792853,0.54939 -1.2912318,0.37705 -0.36878153,-0.15428 -0.19418258,-0.54369 0.038412,-0.66979 0.8681342,-0.47065 1.1358891,-1.14859 1.6107666,-1.79051 0.2225397,-0.30081 0.9079942,-1.39122 1.3646775,-1.90369 -0.5822353,0.47524 -1.2453635,1.98244 -1.4580413,1.94963 -0.1232801,-0.019 -0.4063243,-0.3071 -0.4063243,-0.57169 0,-0.26458 0.7756461,-1.20759 1.1488026,-1.76181 -0.4414638,0.56257 -0.8634741,1.236 -1.0689863,1.37624 -0.2863282,0.1954 -0.5808558,-0.13236 -0.4472578,-0.50658 0.066627,-0.18662 0.6140553,-0.91336 1.0723514,-1.48978 -0.5173499,0.61186 -0.6644023,0.76473 -0.8815047,1.03524 -0.1560432,0.19444 -0.6667349,0.0486 -0.5640084,-0.31104 0.08379,-0.29337 2.4698492,-2.79767 2.4698492,-2.79767 v 0"
       id="path827"
       inkscape:connector-curvature="0"
       sodipodi:nodetypes="csssssssssscsscsscsssc"
       inkscape:label="path828" />
  </g>
</svg>
