<?xml version="1.0" encoding="UTF-8" standalone="no"?>
<!-- Created with Inkscape (http://www.inkscape.org/) -->

<svg
   xmlns:dc="http://purl.org/dc/elements/1.1/"
   xmlns:cc="http://creativecommons.org/ns#"
   xmlns:rdf="http://www.w3.org/1999/02/22-rdf-syntax-ns#"
   xmlns:svg="http://www.w3.org/2000/svg"
   xmlns="http://www.w3.org/2000/svg"
   xmlns:sodipodi="http://sodipodi.sourceforge.net/DTD/sodipodi-0.dtd"
   xmlns:inkscape="http://www.inkscape.org/namespaces/inkscape"
   width="28"
   height="28"
   viewBox="0 0 28 28"
   version="1.1"
   id="svg8"
   inkscape:version="0.92.3 (2405546, 2018-03-11)"
   sodipodi:docname="smudge_tool.svg"
   inkscape:export-xdpi="96"
   inkscape:export-ydpi="96">
  <defs
     id="defs2" />
  <sodipodi:namedview
     id="base"
     pagecolor="#ffffff"
     bordercolor="#666666"
     borderopacity="1.0"
     inkscape:pageopacity="0.0"
     inkscape:pageshadow="2"
     inkscape:zoom="22.4"
     inkscape:cx="16.647241"
     inkscape:cy="14.647028"
     inkscape:document-units="px"
     inkscape:current-layer="svg8"
     showgrid="true"
     units="px"
     inkscape:window-width="1680"
     inkscape:window-height="987"
     inkscape:window-x="-8"
     inkscape:window-y="-8"
     inkscape:window-maximized="1"
     inkscape:snap-grids="false">
    <inkscape:grid
       type="xygrid"
       id="grid815" />
  </sodipodi:namedview>
  <metadata
     id="metadata5">
    <rdf:RDF>
      <cc:Work
         rdf:about="">
        <dc:format>image/svg+xml</dc:format>
        <dc:type
           rdf:resource="http://purl.org/dc/dcmitype/StillImage" />
        <dc:title></dc:title>
      </cc:Work>
    </rdf:RDF>
  </metadata>
  <g
     inkscape:label="Layer 1"
     inkscape:groupmode="layer"
     id="layer1">
    <path
       style="fill:none;stroke:#000000;stroke-width:1.15848136;stroke-linecap:round;stroke-linejoin:round;stroke-miterlimit:4;stroke-dasharray:none;stroke-opacity:1"
       d="m 22.147559,2.4032666 c 2.423633,5.90885 2.293354,14.9019304 1.165854,15.5384204 -1.314075,0.74179 -3.690462,1.94186 -4.517334,2.29641 -0.895814,0.38408 -0.859902,0.60921 -5.182889,0.66014 -2.259498,0.028 -0.339244,-2.11338 0.231108,-2.84389 0.783876,-1.00398 2.427194,0.11068 3.353988,-0.81602 0.926777,-0.92677 0.943326,-5.41177 0.01653,-4.485 -0.926794,0.92681 -6.812535,11.07389 -9.3671491,13.08597 -1.9144201,1.50786 -3.0799692,1.92441 -4.5229394,1.32074 -1.2917717,-0.54041 -0.6801848,-1.90444 0.1345499,-2.34615 3.040909,-1.6486 3.9788035,-4.02329 5.6422086,-6.27181 0.779515,-1.05368 3.180531,-4.87318 4.780206,-6.66827 -2.03946,1.66468 -4.362271,6.94411 -5.1072412,6.82919 -0.4318267,-0.0666 -1.4232767,-1.07572 -1.4232767,-2.00253 0,-0.92677 2.7169409,-4.22995 4.0240369,-6.17128 -1.546364,1.97057 -3.0245854,4.32947 -3.7444556,4.82071 -1.0029532,0.68444 -2.0346274,-0.46364 -1.566659,-1.77446 C 6.2974781,12.921747 8.2150153,10.376117 9.820339,8.3570266 8.0081611,10.500257 7.4930645,11.035727 6.7325961,11.983277 6.1860064,12.664357 4.3971505,12.153507 4.7569819,10.893757 5.0504824,9.8661366 13.408393,1.0940566 13.408393,1.0940566 v 0"
       id="path827"
       inkscape:connector-curvature="0"
       sodipodi:nodetypes="csssssssssscsscsscsssc"
       inkscape:label="path828" />
  </g>
</svg>
