<?xml version="1.0" encoding="UTF-8" standalone="no"?>
<svg
   width="28"
   height="28"
   fill="currentColor"
   viewBox="0 0 28 28"
   version="1.1"
   id="svg4"
   sodipodi:docname="bs_brush.svg"
   inkscape:version="1.2.1 (9c6d41e410, 2022-07-14)"
   xmlns:inkscape="http://www.inkscape.org/namespaces/inkscape"
   xmlns:sodipodi="http://sodipodi.sourceforge.net/DTD/sodipodi-0.dtd"
   xmlns="http://www.w3.org/2000/svg"
   xmlns:svg="http://www.w3.org/2000/svg">
  <defs
     id="defs8" />
  <sodipodi:namedview
     id="namedview6"
     pagecolor="#ffffff"
     bordercolor="#666666"
     borderopacity="1.0"
     inkscape:showpageshadow="2"
     inkscape:pageopacity="0.0"
     inkscape:pagecheckerboard="0"
     inkscape:deskcolor="#d1d1d1"
     showgrid="false"
     inkscape:zoom="14.75"
     inkscape:cx="8.0338983"
     inkscape:cy="13.152542"
     inkscape:window-width="1366"
     inkscape:window-height="705"
     inkscape:window-x="-8"
     inkscape:window-y="-8"
     inkscape:window-maximized="1"
     inkscape:current-layer="svg4" />
  <path
     d="M 26.9375 0.037109375 C 26.145913 0.28008817 25.539443 0.9161635 24.828125 1.3320312 C 23.814397 2.0695578 22.805168 2.8130207 21.826977 3.5974409 C 19.863257 5.1673816 17.955629 6.8091214 16.121742 8.5292583 C 14.577 9.9856786 13.077322 11.491393 11.667434 13.079378 C 10.985824 13.897236 10.233374 14.671378 9.7137195 15.608811 C 9.1853442 16.515098 8.8052464 17.498368 8.4963126 18.498698 C 8.3955154 18.626312 8.4768238 19.039422 8.1877453 18.871857 C 7.1921477 18.738533 6.1348346 18.996895 5.3448442 19.626441 C 4.5315263 20.230674 4.0357642 21.138901 3.4824219 21.964844 C 2.9489794 22.784832 2.5256032 23.716241 1.7421875 24.337891 C 1.1186418 24.754919 0.11944403 25.169472 0.29492188 26.09375 C 0.45163386 26.842884 1.2562873 27.125016 1.8970894 27.33005 C 2.8067742 27.536931 3.7520324 27.594017 4.6818378 27.607592 C 5.8432893 27.576454 7.0062245 27.447553 8.1347656 27.166016 C 9.1965095 26.851646 10.079067 26.077631 10.635744 25.132714 C 11.111429 24.385746 11.357354 23.523471 11.517578 22.660156 C 11.43723 22.30564 11.850601 22.36445 12.046448 22.228457 C 12.921212 21.871423 13.754507 21.394369 14.472656 20.777344 C 15.781392 19.639623 16.878501 18.287962 17.971893 16.949021 C 19.159995 15.486305 20.265393 13.959362 21.342113 12.413531 C 21.978597 11.50273 22.583695 10.569926 23.194439 9.6417895 C 23.88814 8.5375268 24.580743 7.432601 25.224755 6.2983206 C 26.191681 4.6604706 27.061821 2.966444 27.855469 1.2382812 C 28.162936 0.62783058 27.576369 -0.085242754 26.9375 0.037109375 z M 23.599609 5.6132812 C 22.339964 7.7324252 21.019167 9.8162014 19.601069 11.833224 C 18.427746 13.504073 17.199286 15.137625 15.892474 16.706614 C 14.99784 17.760289 14.125215 18.85511 13.015115 19.694158 C 12.398359 20.11887 11.735267 20.505841 11.017578 20.734375 C 10.682943 20.395833 10.348307 20.057292 10.013672 19.71875 C 10.383976 18.431059 10.804265 17.133956 11.548852 16.007347 C 12.226638 15.082865 12.999885 14.230518 13.771484 13.382812 C 14.950818 12.117063 16.170456 10.889238 17.43914 9.7128801 C 18.525869 8.6903983 19.644182 7.702363 20.781529 6.7366105 C 21.655563 5.9929772 22.5486 5.2709641 23.448024 4.5583656 C 23.881365 4.2251083 24.314706 3.891851 24.748047 3.5585938 C 24.365234 4.2434896 23.982422 4.9283854 23.599609 5.6132812 z M 8.0644531 20.578125 C 8.6970292 20.575448 8.9818028 21.224638 9.4281683 21.570966 C 9.5557086 21.801141 10.022954 21.929466 9.8843009 22.239451 C 9.7163322 23.140547 9.4646935 24.086911 8.8007812 24.757812 C 8.1321115 25.408701 7.1796045 25.59955 6.2876193 25.716449 C 5.1412278 25.891186 3.9700973 25.908194 2.8222656 25.736328 C 3.6933331 25.003982 4.3016956 24.026128 4.9156419 23.082128 C 5.4617578 22.29021 5.9230001 21.402695 6.7109375 20.816406 C 7.1046045 20.533643 7.6015382 20.513977 8.0644531 20.578125 z "
     id="path2"
     style="stroke-width:1.75865" />
</svg>
