<?xml version="1.0" encoding="UTF-8" standalone="no"?>
<svg
   width="28"
   height="28"
   fill="currentColor"
   class="bi bi-eraser"
   viewBox="0 0 28 28"
   version="1.1"
   id="svg4"
   sodipodi:docname="bs_eraser.svg"
   inkscape:version="1.2.1 (9c6d41e410, 2022-07-14)"
   xmlns:inkscape="http://www.inkscape.org/namespaces/inkscape"
   xmlns:sodipodi="http://sodipodi.sourceforge.net/DTD/sodipodi-0.dtd"
   xmlns="http://www.w3.org/2000/svg"
   xmlns:svg="http://www.w3.org/2000/svg">
  <defs
     id="defs8" />
  <sodipodi:namedview
     id="namedview6"
     pagecolor="#ffffff"
     bordercolor="#666666"
     borderopacity="1.0"
     inkscape:showpageshadow="2"
     inkscape:pageopacity="0.0"
     inkscape:pagecheckerboard="0"
     inkscape:deskcolor="#d1d1d1"
     showgrid="false"
     inkscape:zoom="16"
     inkscape:cx="17.09375"
     inkscape:cy="17"
     inkscape:window-width="1366"
     inkscape:window-height="705"
     inkscape:window-x="-8"
     inkscape:window-y="-8"
     inkscape:window-maximized="1"
     inkscape:current-layer="svg4" />
  <path
     id="path2"
     style="stroke-width:1.82"
     d="M 16.78125 1.6210938 A 3.6400021 3.6400021 0 0 0 14.207031 2.6875 L 14.205078 2.6875 L 1.6855469 15.207031 A 3.6400021 3.6400021 0 0 0 1.6855469 20.353516 L 6.2363281 24.904297 A 3.6400021 3.6400021 0 0 0 8.8105469 25.970703 L 13.830078 25.970703 A 3.6400021 3.6400021 0 0 0 13.845703 25.96875 L 22.435547 25.96875 C 22.924256 25.96875 23.316406 25.574646 23.316406 25.085938 L 23.316406 25.064453 C 23.316406 24.575744 22.924256 24.181641 22.435547 24.181641 L 17.126953 24.181641 L 26.414062 14.894531 A 3.6400021 3.6400021 0 0 0 26.414062 9.7460938 L 19.355469 2.6875 A 3.6400021 3.6400021 0 0 0 16.78125 1.6210938 z M 16.78125 3.4414062 A 1.820001 1.820001 0 0 1 18.068359 3.9746094 L 25.126953 11.033203 A 1.820001 1.820001 0 0 1 25.126953 13.607422 L 16.695312 22.039062 L 7.0625 12.40625 L 15.494141 3.9746094 A 1.820001 1.820001 0 0 1 16.78125 3.4414062 z M 5.7753906 13.693359 L 15.408203 23.326172 L 15.119141 23.617188 A 1.820001 1.820001 0 0 1 13.832031 24.150391 L 8.8105469 24.150391 A 1.820001 1.820001 0 0 1 7.5253906 23.617188 L 2.9746094 19.066406 A 1.820001 1.820001 0 0 1 2.9746094 16.494141 L 5.7753906 13.693359 z " />
</svg>
