<?xml version="1.0" encoding="UTF-8" standalone="no"?>
<svg
        width="28"
        height="28"
        viewBox="0 0 28 28"
        version="1.1"
        id="svg1"
        sodipodi:docname="lasso_tool.svg"
        inkscape:version="1.3.2 (091e20e, 2023-11-25, custom)"
        xmlns:inkscape="http://www.inkscape.org/namespaces/inkscape"
        xmlns:sodipodi="http://sodipodi.sourceforge.net/DTD/sodipodi-0.dtd"
        xmlns="http://www.w3.org/2000/svg"
>
    <sodipodi:namedview
            id="namedview1"
            pagecolor="#ffffff"
            bordercolor="#666666"
            borderopacity="1.0"
            inkscape:showpageshadow="2"
            inkscape:pageopacity="0.0"
            inkscape:pagecheckerboard="0"
            inkscape:deskcolor="#d1d1d1"
            showgrid="true"
            inkscape:zoom="18.392857"
            inkscape:cx="10.031068"
            inkscape:cy="15.141748"
            inkscape:window-width="1366"
            inkscape:window-height="705"
            inkscape:window-x="-8"
            inkscape:window-y="-8"
            inkscape:window-maximized="1"
            inkscape:current-layer="svg1">
        <inkscape:grid
                id="grid1"
                units="px"
                originx="0"
                originy="0"
                spacingx="1"
                spacingy="1"
                empcolor="#3f3fff"
                empopacity="0.25098039"
                color="#3f3fff"
                opacity="0.1254902"
                empspacing="5"
                dotted="false"
                gridanglex="30"
                gridanglez="30"
                visible="true"/>
    </sodipodi:namedview>
    <defs
            id="defs1"/>
    <path
            id="path1"
            style="fill:#000000;fill-opacity:0.989474"
            d="M 14.975346,2.4473651 C 10.833825,2.4917351 6.6417778,3.5243885 4.13823,7.7701889 2.5103706,10.530897 3.5668295,13.121411 6.1484487,15.462234 5.441171,17.407727 6.8027102,20.385766 11.455085,18.79228 11.180367,19.575245 9.1532087,20.355129 8.4512542,20.699642 6.9299497,21.283743 5.6160939,21.932861 5.36689,23.697969 c -0.1317965,0.933514 0.3809561,2.536325 1.3295267,1.895778 0.4094977,-0.755901 -0.2023358,-2.069664 1.1719139,-2.931559 2.3104134,-1.449035 5.2826054,-1.912705 5.6558184,-5.009274 3.66155,-0.649111 7.638005,-1.569584 10.207009,-4.404712 2.181886,-2.649103 1.061302,-6.4604776 -1.606077,-8.4439826 -1.98045,-1.472694 -4.715802,-2.38293 -7.149735,-2.3568543 z m 0.137566,1.4530255 c 5.997863,0.2073489 9.647355,4.7950658 7.893282,7.6267834 -2.110149,2.947703 -6.111969,3.954995 -9.611989,4.33588 C 12.035263,13.160494 9.931844,13.17073 7.4016223,14.33738 4.054675,11.216044 4.1825418,8.9120531 7.6983987,6.0466615 9.8134805,4.3228889 12.883084,3.8233043 15.112912,3.9003906 Z M 11.46885,16.915383 C 10.047759,19.071274 6.3925118,17.76767 7.7550969,15.923511 8.9939951,14.471869 12.469638,15.019517 11.46885,16.915383 Z"
            sodipodi:nodetypes="sscccscscsssssccssccc"/>
</svg>
