<svg xmlns="http://www.w3.org/2000/svg" width="28" height="28" fill="currentColor">
  <path d="M26.938.037c-.792.243-1.399.88-2.11 1.295a80.113 80.113 0 0 0-3.001 2.265 95.525 95.525 0 0 0-5.705 4.932c-1.545 1.457-3.045 2.962-4.455 4.55-.681.818-1.434 1.592-1.953 2.53-.529.906-.909 1.89-1.218 2.89-.1.127-.02.54-.308.373-.996-.133-2.053.125-2.843.754-.813.605-1.31 1.513-1.863 2.339-.533.82-.956 1.751-1.74 2.373-.623.417-1.623.831-1.447 1.756.157.749.961 1.031 1.602 1.236.91.207 1.855.264 2.785.278 1.161-.032 2.324-.16 3.453-.442 1.062-.314 1.944-1.088 2.5-2.033.476-.747.722-1.61.883-2.473-.08-.354.333-.296.528-.432.875-.357 1.709-.834 2.427-1.45 1.308-1.138 2.406-2.49 3.499-3.829 1.188-1.463 2.293-2.99 3.37-4.535.637-.911 1.242-1.844 1.852-2.772.694-1.104 1.387-2.21 2.03-3.344a55.52 55.52 0 0 0 2.631-5.06c.308-.61-.279-1.323-.918-1.2zM23.6 5.613a96.716 96.716 0 0 1-3.999 6.22 74.482 74.482 0 0 1-3.709 4.874c-.894 1.053-1.767 2.148-2.877 2.987-.617.425-1.28.812-1.997 1.04l-1.004-1.015c.37-1.288.79-2.585 1.535-3.712.678-.924 1.45-1.776 2.222-2.624a71.022 71.022 0 0 1 3.668-3.67 87.83 87.83 0 0 1 3.343-2.976 98.559 98.559 0 0 1 2.666-2.179l1.3-1L23.6 5.614zM8.064 20.578c.633-.003.918.647 1.364.993.128.23.595.358.456.668-.168.902-.42 1.848-1.083 2.519-.669.65-1.621.842-2.513.958a11.614 11.614 0 0 1-3.466.02c.871-.732 1.48-1.71 2.094-2.654.546-.792 1.007-1.68 1.795-2.266.394-.282.89-.302 1.353-.238z" style="stroke-width:1.75865"/>
</svg>
