<?xml version="1.0" encoding="UTF-8" standalone="no"?>
<!-- Created with Inkscape (http://www.inkscape.org/) -->

<svg
   xmlns:dc="http://purl.org/dc/elements/1.1/"
   xmlns:cc="http://creativecommons.org/ns#"
   xmlns:rdf="http://www.w3.org/1999/02/22-rdf-syntax-ns#"
   xmlns:svg="http://www.w3.org/2000/svg"
   xmlns="http://www.w3.org/2000/svg"
   xmlns:sodipodi="http://sodipodi.sourceforge.net/DTD/sodipodi-0.dtd"
   xmlns:inkscape="http://www.inkscape.org/namespaces/inkscape"
   width="28"
   height="28"
   viewBox="0 0 28 28"
   version="1.1"
   id="svg8"
   inkscape:version="0.92.3 (2405546, 2018-03-11)"
   sodipodi:docname="hand_tool_new.svg"
   inkscape:export-xdpi="96"
   inkscape:export-ydpi="96">
  <defs
     id="defs2" />
  <sodipodi:namedview
     id="base"
     pagecolor="#ffffff"
     bordercolor="#666666"
     borderopacity="1.0"
     inkscape:pageopacity="0.0"
     inkscape:pageshadow="2"
     inkscape:zoom="22.4"
     inkscape:cx="13.672933"
     inkscape:cy="12.331032"
     inkscape:document-units="px"
     inkscape:current-layer="layer1"
     showgrid="true"
     units="px"
     inkscape:window-width="1680"
     inkscape:window-height="987"
     inkscape:window-x="-8"
     inkscape:window-y="-8"
     inkscape:window-maximized="1"
     inkscape:snap-grids="false">
    <inkscape:grid
       type="xygrid"
       id="grid815" />
  </sodipodi:namedview>
  <metadata
     id="metadata5">
    <rdf:RDF>
      <cc:Work
         rdf:about="">
        <dc:format>image/svg+xml</dc:format>
        <dc:type
           rdf:resource="http://purl.org/dc/dcmitype/StillImage" />
        <dc:title />
      </cc:Work>
    </rdf:RDF>
  </metadata>
  <g
     inkscape:label="Layer 1"
     inkscape:groupmode="layer"
     id="layer1">
    <path
       style="display:inline;fill:none;stroke:#000000;stroke-width:1.1522429;stroke-linecap:round;stroke-linejoin:round;stroke-miterlimit:4;stroke-dasharray:none;stroke-opacity:1"
       d="m 12.343156,28.583106 c -2.8316314,-2.0834 -4.8876719,-2.93334 -6.3321505,-3.90621 -2.4000285,-1.61641 -5.29364594,-6.28209 -5.38644044,-8.5525 -0.049269,-1.20547 1.71828014,-1.54135 4.07066874,2.17906 3.4670239,3.99449 3.6931916,2.02862 3.8239613,-1.8503 0.084093,-2.49434 -1.41935,-9.0401306 -1.6447147,-11.8008506 -0.1644714,-2.01475 2.1792466,-2.83709 2.7960151,-0.78126 0.6167675,2.0559 1.3340605,5.61024 1.7178285,7.7542406 0.461368,2.57758 1.518651,2.0394 1.508463,0.68693 -0.02203,-2.9243306 -0.512508,-9.2635506 0.02203,-10.5792906 0.534539,-1.31579024 2.261497,-1.64472024 2.672662,0.12323 0.411193,1.76807 0.522368,6.70515 0.762141,9.5393506 0.199853,2.36234 1.411944,1.64743 1.542525,0.45933 0.296937,-2.7017206 0.244637,-8.7651606 1.066997,-9.7519806 0.822359,-0.9868202 2.039998,-1.0440502 2.343719,0.24681 0.32894,1.39801 -0.02792,6.75034 -0.246705,10.0327706 -0.135398,2.03153 0.857478,2.47318 1.439124,0.41132 0.761116,-2.69806 0.931215,-4.7512106 1.687899,-6.5958406 0.397857,-0.96987 2.116658,-1.05377 1.971592,0.71603 -0.205591,2.50816 -0.7684,4.8705706 -1.069064,7.1133806 -0.537958,4.01286 -1.016956,6.39359 -0.04112,10.07387 0.625167,2.35778 4.440729,5.05751 4.440729,5.05751"
       id="path827"
       inkscape:connector-curvature="0"
       sodipodi:nodetypes="csscsssssssssssssssssc"
       inkscape:label="path828" />
  </g>
</svg>
