<svg xmlns="http://www.w3.org/2000/svg" width="28" height="28">
  <path d="M12.343 28.583C9.512 26.5 7.455 25.65 6.011 24.677 3.611 23.06.717 18.395.625 16.124c-.05-1.205 1.718-1.541 4.07 2.18 3.467 3.994 3.693 2.028 3.824-1.85.084-2.495-1.42-9.041-1.645-11.802-.164-2.014 2.18-2.837 2.796-.781.617 2.056 1.335 5.61 1.718 7.754.462 2.578 1.519 2.04 1.509.687-.022-2.924-.513-9.263.022-10.58.534-1.315 2.261-1.644 2.672.124.412 1.768.523 6.705.763 9.54.2 2.362 1.412 1.647 1.542.459.297-2.702.245-8.765 1.067-9.752.823-.987 2.04-1.044 2.344.247.329 1.398-.028 6.75-.247 10.032-.135 2.032.858 2.474 1.44.412.76-2.698.93-4.751 1.687-6.596.398-.97 2.117-1.054 1.972.716-.206 2.508-.769 4.87-1.07 7.113-.537 4.013-1.016 6.394-.04 10.074.625 2.358 4.44 5.058 4.44 5.058" style="display:inline;fill:none;stroke:#000;stroke-width:1.1522429;stroke-linecap:round;stroke-linejoin:round;stroke-miterlimit:4;stroke-dasharray:none;stroke-opacity:1"/>
</svg>
