<svg xmlns="http://www.w3.org/2000/svg" width="28" height="28">
  <path d="m21.944-.977-3.43 3.886 6.86 7.773 3.429-3.886" style="fill:none;stroke:#000;stroke-width:1.49892414;stroke-linecap:butt;stroke-linejoin:miter;stroke-miterlimit:4;stroke-dasharray:none;stroke-opacity:1"/>
  <path d="M20.605 5.476s-4.258 2.853-10.2 3.567L8.633 19.511l10.644-1.745s1.66-6.118 3.494-10.06" style="fill:none;stroke:#000;stroke-width:1.49892414;stroke-linecap:butt;stroke-linejoin:miter;stroke-miterlimit:4;stroke-dasharray:none;stroke-opacity:1"/>
  <path d="M16.882 13.06a1.877 1.877 0 0 1-1.825 1.928 1.877 1.877 0 0 1-1.927-1.825 1.877 1.877 0 0 1 1.824-1.928 1.877 1.877 0 0 1 1.928 1.824" style="fill:none;fill-opacity:1;stroke:#000;stroke-width:.99635261;stroke-linecap:round;stroke-linejoin:round;stroke-miterlimit:4;stroke-dasharray:none;stroke-dashoffset:0;stroke-opacity:1"/>
  <path d="m8.99 19.065 4.904-4.91" style="display:inline;fill:none;stroke:#000;stroke-width:.99928278;stroke-linecap:butt;stroke-linejoin:miter;stroke-miterlimit:4;stroke-dasharray:none;stroke-opacity:1"/>
  <path d="M2.426 4.203C2.268 18.164 9.74 25.78 23.5 25.544" style="display:inline;fill:none;stroke:#000;stroke-width:1.001683;stroke-linecap:butt;stroke-linejoin:miter;stroke-miterlimit:4;stroke-dasharray:none;stroke-opacity:1"/>
  <path d="M9.994 25.544H23.5" style="fill:none;stroke:#000;stroke-width:1.001683;stroke-linecap:butt;stroke-linejoin:miter;stroke-miterlimit:4;stroke-dasharray:none;stroke-opacity:1"/>
  <rect width="3.996" height="3.996" x="23.502" y="23.502" ry="0" style="fill:none;fill-opacity:1;stroke:#000;stroke-width:1;stroke-linecap:round;stroke-linejoin:miter;stroke-miterlimit:4;stroke-dasharray:none;stroke-dashoffset:0;stroke-opacity:1"/>
  <rect width="3.996" height="3.996" x="6.502" y="23.502" ry="0" style="fill:none;fill-opacity:1;stroke:#000;stroke-width:1;stroke-linecap:round;stroke-linejoin:miter;stroke-miterlimit:4;stroke-dasharray:none;stroke-dashoffset:0;stroke-opacity:1"/>
  <path d="M2.41 4.486c.224 14.41.08 12.919.08 12.919" style="fill:none;stroke:#000;stroke-width:.99907315;stroke-linecap:butt;stroke-linejoin:miter;stroke-miterlimit:4;stroke-dasharray:none;stroke-opacity:1"/>
  <rect width="3.999" height="3.999" x=".5" y="17.5" ry="0" style="fill:none;fill-opacity:1;stroke:#000;stroke-width:1;stroke-linecap:round;stroke-linejoin:miter;stroke-miterlimit:4;stroke-dasharray:none;stroke-dashoffset:0;stroke-opacity:1"/>
  <rect width="3.997" height="3.997" x=".501" y=".501" ry="0" style="fill:none;fill-opacity:1;stroke:#000;stroke-width:1;stroke-linecap:round;stroke-linejoin:miter;stroke-miterlimit:4;stroke-dasharray:none;stroke-dashoffset:0;stroke-opacity:1"/>
</svg>
