<svg xmlns="http://www.w3.org/2000/svg" width="28" height="28">
  <path d="M22.148 2.403c2.423 5.91 2.293 14.902 1.165 15.539-1.314.741-3.69 1.942-4.517 2.296-.896.384-.86.61-5.183.66-2.26.028-.34-2.113.231-2.844.784-1.004 2.427.111 3.354-.816.927-.926.944-5.411.017-4.485-.927.927-6.813 11.074-9.367 13.086-1.915 1.508-3.08 1.925-4.523 1.321-1.292-.54-.68-1.904.134-2.346 3.041-1.649 3.98-4.023 5.642-6.272.78-1.054 3.181-4.873 4.78-6.668-2.039 1.664-4.362 6.944-5.107 6.829-.431-.067-1.423-1.076-1.423-2.003 0-.926 2.717-4.23 4.024-6.17-1.546 1.97-3.024 4.329-3.744 4.82-1.003.684-2.035-.464-1.567-1.775.233-.653 2.151-3.199 3.756-5.218-1.812 2.143-2.327 2.679-3.087 3.626-.547.681-2.336.17-1.976-1.09.293-1.027 8.651-9.799 8.651-9.799v0" style="fill:none;stroke:#000;stroke-width:1.15848136;stroke-linecap:round;stroke-linejoin:round;stroke-miterlimit:4;stroke-dasharray:none;stroke-opacity:1"/>
</svg>
